<?xml version="1.0" encoding="UTF-8" standalone="no"?>
<svg
   xmlns:dc="http://purl.org/dc/elements/1.1/"
   xmlns:cc="http://creativecommons.org/ns#"
   xmlns:rdf="http://www.w3.org/1999/02/22-rdf-syntax-ns#"
   xmlns:svg="http://www.w3.org/2000/svg"
   xmlns="http://www.w3.org/2000/svg"
   xmlns:sodipodi="http://sodipodi.sourceforge.net/DTD/sodipodi-0.dtd"
   xmlns:inkscape="http://www.inkscape.org/namespaces/inkscape"
   inkscape:version="1.0 (4035a4fb49, 2020-05-01)"
   sodipodi:docname="master_copy.svg"
   id="svg20"
   version="1.1"
   viewBox="0 0 192.756 192.756"
   height="192.756px"
   width="192.756px">
  <metadata
     id="metadata26">
    <rdf:RDF>
      <cc:Work
         rdf:about="">
        <dc:format>image/svg+xml</dc:format>
        <dc:type
           rdf:resource="http://purl.org/dc/dcmitype/StillImage" />
        <dc:title />
      </cc:Work>
    </rdf:RDF>
  </metadata>
  <defs
     id="defs24" />
  <sodipodi:namedview
     inkscape:current-layer="svg20"
     inkscape:window-maximized="1"
     inkscape:window-y="-11"
     inkscape:window-x="-11"
     inkscape:cy="105.85004"
     inkscape:cx="96.377998"
     inkscape:zoom="4.2229555"
     showgrid="false"
     id="namedview22"
     inkscape:window-height="1000"
     inkscape:window-width="1920"
     inkscape:pageshadow="2"
     inkscape:pageopacity="0"
     guidetolerance="10"
     gridtolerance="10"
     objecttolerance="10"
     borderopacity="1"
     bordercolor="#666666"
     pagecolor="#ffffff"
     inkscape:document-rotation="0" />
  <g
     transform="matrix(0.75142159,0,0,0.57910901,23.189499,39.734594)"
     id="g869">
    <g
       transform="matrix(0.46790658,0,0,0.5020199,-19.477601,-27.938376)"
       height="192.756"
       width="192.756"
       id="g10">
      <g
         id="g8">
        <path
           sodipodi:nodetypes="cssccscsssssscscccsccssccssssscccccsssss"
           style="fill:#000000"
           id="path2"
           d="m 486.615,322.905 v -58.289 c 0,-8.283 -6.715,-15 -15,-15 h -8.801 l -74.73,-99.464 c -2.834,-3.771 -7.275,-5.99 -11.992,-5.99 H 310.225 V 74.8 c 0,-8.284 -6.717,-15 -15.001,-15 H 15 c -8.284,0 -15,6.716 -15,15 v 288.666 c 0,8.284 6.716,15 15,15 h 23.917 c 1.825,34.289 30.292,61.625 65.028,61.625 34.736,0 63.203,-27.336 65.028,-61.625 h 126.25 35.693 c 1.826,34.289 30.293,61.625 65.029,61.625 34.736,0 63.203,-27.336 65.027,-61.625 h 10.643 13.275 c 8.283,0 15,-6.716 15,-15 V 337.8 c 0.003,-7.7 -5.804,-14.037 -13.275,-14.895 z m -382.669,87.186 c -19.368,0 -35.125,-15.757 -35.125,-35.125 0,-19.368 15.757,-35.125 35.125,-35.125 19.368,0 35.125,15.757 35.125,35.125 0,19.368 -15.757,35.125 -35.125,35.125 z M 310.225,249.617 V 174.163 H 368.6 l 56.689,75.454 z m 85.72,160.474 c -19.367,0 -35.125,-15.757 -35.125,-35.125 0,-19.368 15.758,-35.125 35.125,-35.125 19.369,0 35.125,15.757 35.125,35.125 0,19.368 -15.756,35.125 -35.125,35.125 z" />
        <path
           id="path4-8"
           d="m 179.53,173.664 c 5.198,-1.911 7.724,-4.85 7.724,-8.987 0,-5.794 -5.038,-7.859 -9.754,-7.859 -11.541,0 -19.387,9.914 -22.064,19.524 0.648,0.007 1.289,0.01 1.921,0.01 10,0.001 17.253,-0.879 22.173,-2.688 z" />
        <path
           id="path6-4"
           d="m 253.333,156.819 c -11.542,0 -19.387,9.914 -22.064,19.524 0.648,0.007 1.289,0.01 1.921,0.01 10,0 17.251,-0.879 22.173,-2.688 5.197,-1.911 7.725,-4.85 7.725,-8.987 -0.001,-5.795 -5.04,-7.859 -9.755,-7.859 z" />
      </g>
    </g>
    <text
       id="text852"
       y="60.360207"
       x="-6.2521605"
       style="font-size:40px;line-height:1.25;font-family:'Fjalla One';-inkscape-font-specification:'Fjalla One'"
       xml:space="preserve"><tspan
         style="font-size:35px;fill:#ffffff"
         y="60.360207"
         x="-6.2521605"
         id="tspan850"
         sodipodi:role="line">CASH ON</tspan><tspan
         style="font-size:35px;fill:#ffffff"
         id="tspan854"
         y="110.36021"
         x="-6.2521605"
         sodipodi:role="line">DELIVERY</tspan></text>
  </g>
</svg>
