<?xml version="1.0" encoding="UTF-8" standalone="no"?>
<svg
   xmlns:dc="http://purl.org/dc/elements/1.1/"
   xmlns:cc="http://creativecommons.org/ns#"
   xmlns:rdf="http://www.w3.org/1999/02/22-rdf-syntax-ns#"
   xmlns:svg="http://www.w3.org/2000/svg"
   xmlns="http://www.w3.org/2000/svg"
   xmlns:sodipodi="http://sodipodi.sourceforge.net/DTD/sodipodi-0.dtd"
   xmlns:inkscape="http://www.inkscape.org/namespaces/inkscape"
   width="192.756px"
   height="192.756px"
   viewBox="0 0 192.756 192.756"
   version="1.1"
   id="svg14"
   sodipodi:docname="visa.svg"
   inkscape:version="1.0 (4035a4fb49, 2020-05-01)">
  <metadata
     id="metadata20">
    <rdf:RDF>
      <cc:Work
         rdf:about="">
        <dc:format>image/svg+xml</dc:format>
        <dc:type
           rdf:resource="http://purl.org/dc/dcmitype/StillImage" />
      </cc:Work>
    </rdf:RDF>
  </metadata>
  <defs
     id="defs18" />
  <sodipodi:namedview
     inkscape:document-rotation="0"
     pagecolor="#ffffff"
     bordercolor="#666666"
     borderopacity="1"
     objecttolerance="10"
     gridtolerance="10"
     guidetolerance="10"
     inkscape:pageopacity="0"
     inkscape:pageshadow="2"
     inkscape:window-width="1920"
     inkscape:window-height="1000"
     id="namedview16"
     showgrid="false"
     inkscape:zoom="4.2229555"
     inkscape:cx="96.377998"
     inkscape:cy="95.312394"
     inkscape:window-x="-11"
     inkscape:window-y="-11"
     inkscape:window-maximized="1"
     inkscape:current-layer="svg14" />
  <g
     fill-rule="evenodd"
     clip-rule="evenodd"
     id="g12">
    <path
       d="M189.922 50.809c0-8.986-4.67-13.444-13.729-13.444H16.562c-4.528 0-7.854 1.203-10.048 3.679-2.476 2.477-3.68 5.661-3.68 9.765v91.138c0 4.104 1.204 7.217 3.68 9.764 2.548 2.477 5.803 3.68 10.048 3.68h159.631c9.059 0 13.729-4.527 13.729-13.443V50.809zm-13.729-11.321c7.5 0 11.322 3.821 11.322 11.321v91.138c0 7.57-3.822 11.32-11.322 11.32H16.562c-3.609 0-6.368-1.061-8.42-3.184-2.123-2.053-3.184-4.883-3.184-8.137V50.809c0-7.5 3.75-11.321 11.604-11.321h159.631z"
       fill="#315881"
       id="path4" />
    <path
       d="M17.835 44.724c-3.042 0-4.953.495-6.014 1.557-.92 1.203-1.344 3.184-1.344 6.085v19.741h171.802V52.366c0-5.165-2.549-7.642-7.643-7.642H17.835z"
       fill="#315881"
       id="path6" />
    <path
       d="M10.477 140.107c0 5.234 2.476 7.924 7.358 7.924h156.801c5.094 0 7.643-2.689 7.643-7.924v-19.742H10.477v19.742z"
       fill="#dfa43b"
       id="path8" />
    <path
       d="M67.367 80.528c0 .92-.142 1.627-.495 2.123l-12.383 21.582-.779-26.323H33.898l6.651 3.184c1.91 1.203 2.901 2.759 2.901 4.741l1.839 27.951h9.694l23.21-35.876H66.306c.707.637 1.061 1.627 1.061 2.618zM147.467 78.971l.777-1.062h-12.1c.424.424.566.637.566.778-.143.565-.426.92-.566 1.344l-17.619 32.124c-.424.566-.85 1.062-1.344 1.629h9.977l-.496-1.062c0-.92.496-2.617 1.557-5.023l2.123-3.963h10.26c.426 3.326.709 6.086.85 8.139l-.85 1.91h12.383l-1.84-2.689-3.678-32.125zm-7.36 19.742h-7.359l6.297-12.1 1.062 12.1zM109.539 76.07c-3.82 0-7.076 1.062-9.977 3.184-3.185 1.84-4.741 4.175-4.741 7.077 0 3.326 1.132 6.227 3.396 8.42l6.865 4.74c2.477 1.77 3.68 3.326 3.68 4.742 0 1.344-.639 2.547-1.84 3.467-1.203.92-2.549 1.344-4.246 1.344-2.477 0-6.722-1.768-12.595-5.023v6.58c4.599 2.76 9.058 4.176 13.373 4.176 4.105 0 7.572-1.133 10.545-3.68 3.184-2.336 4.74-5.094 4.74-8.137 0-2.549-1.133-4.883-3.68-7.36l-6.582-4.741c-2.191-1.769-3.395-3.326-3.395-4.528 0-2.759 1.627-4.175 4.953-4.175 2.264 0 5.59 1.274 10.047 3.963l1.346-6.864c-3.752-2.124-7.643-3.185-11.889-3.185zM83.217 113.785c-.142-1.486-.425-2.83-.567-4.246l8.987-29.011 2.123-2.618H80.811c.142.637.283 1.486.425 2.123 0 .637 0 1.416-.142 2.123l-8.986 28.728-1.84 2.902h12.949v-.001z"
       fill="#315881"
       id="path10" />
  </g>
  <path
     id="path862"
     d="M 13.251038,152.76152 C 9.4008082,151.82613 6.4918948,148.89784 5.4538081,144.91236 5.1340189,143.68461 5.0917056,137.94291 5.095332,96.269046 5.0997678,45.29418 5.0534033,47.252628 6.3155818,44.72536 7.1279216,43.098807 8.2271269,41.956927 9.7744368,41.132219 12.759865,39.541002 5.7374263,39.654543 97.014062,39.721702 l 82.717878,0.06086 1.35905,0.54886 c 3.06616,1.238285 4.73118,3.009652 5.68764,6.050916 l 0.53094,1.688258 v 48.189 c 0,40.304594 -0.0537,48.402094 -0.32842,49.491404 -0.95188,3.77477 -3.159,5.972 -7.00523,6.97381 -1.2603,0.32827 -10.07393,0.3649 -83.470073,0.34688 -63.883408,-0.0157 -82.325435,-0.0844 -83.254809,-0.31017 z M 178.8015,147.28488 c 1.4966,-0.76291 2.65446,-2.1519 3.21761,-3.8599 0.203,-0.61571 0.31322,-4.14833 0.37624,-12.05964 l 0.0891,-11.18884 H 96.392665 10.300842 v 10.37575 c 0,6.48246 0.09694,10.90017 0.258357,11.77334 0.427955,2.31502 1.475808,4.02317 2.938456,4.79012 1.929167,1.01156 -1.29913,0.97553 83.252305,0.92915 l 80.64749,-0.0443 z m -73.06986,-32.5575 c 0.9768,-0.12368 2.50868,-0.45774 3.40418,-0.74236 3.30815,-1.05144 7.46818,-4.44647 8.80737,-7.18778 0.6266,-1.28265 0.6941,-1.65107 0.6941,-3.78881 0,-2.05332 -0.0814,-2.5411 -0.61241,-3.67042 -0.88703,-1.886458 -2.66532,-3.693127 -5.96018,-6.055283 -5.44164,-3.901227 -6.80667,-5.372273 -6.80667,-7.335315 0,-2.900897 3.38377,-4.403639 7.26279,-3.225423 1.83886,0.558537 3.99574,1.51939 6.17567,2.751168 0.814,0.459952 1.48001,0.79867 1.48001,0.752702 0,-0.113148 1.14692,-5.815029 1.30313,-6.47847 0.10755,-0.456763 -0.0921,-0.636286 -1.47739,-1.328316 -1.78449,-0.891463 -3.96117,-1.633569 -6.10097,-2.080029 -2.11098,-0.440447 -6.78294,-0.381259 -8.64324,0.109499 -4.26603,1.125407 -8.980052,4.440864 -9.986662,7.023802 -1.100862,2.82478 -0.328171,7.317481 1.730451,10.061479 0.507027,0.67583 2.003124,1.897752 4.112201,3.358598 4.93062,3.415188 6.02363,4.300228 6.77615,5.486828 1.44269,2.27488 0.49229,4.63092 -2.39533,5.93804 -2.53129,1.14582 -5.612384,0.47887 -11.603252,-2.51169 -2.018729,-1.00772 -3.750336,-1.87173 -3.848016,-1.92003 -0.09768,-0.0483 -0.177601,1.47167 -0.177601,3.37771 v 3.46552 l 2.865969,1.38927 c 4.823821,2.33832 8.81416,3.13926 12.9997,2.60931 z M 66.659475,96.008974 c 6.316666,-9.770877 11.520368,-17.867519 11.56378,-17.992541 0.04908,-0.141344 -2.209213,-0.227312 -5.971237,-0.227312 h -6.050173 l 0.486835,0.825124 c 0.376099,0.637437 0.468541,1.135671 0.406414,2.190409 -0.0764,1.297072 -0.3877,1.89997 -6.230802,12.067238 -3.382709,5.886074 -6.177605,10.674728 -6.210878,10.641458 -0.03327,-0.0333 -0.234212,-5.808196 -0.446535,-12.833162 -0.212323,-7.024967 -0.411167,-12.800476 -0.44188,-12.834464 -0.03071,-0.03399 -4.574612,-0.03399 -10.097552,0 l -10.041709,0.0618 3.549905,1.732246 c 4.203353,2.051109 4.878612,2.529099 5.559287,3.93518 0.469943,0.970775 0.594605,2.266687 1.441414,14.984101 0.50984,7.656779 0.928615,14.214459 0.930612,14.572619 l 0.0036,0.6512 5.032021,-0.004 5.032021,-0.004 z m 16.576069,17.286456 c 0,-0.26809 -0.109542,-1.2005 -0.243427,-2.07201 l -0.243429,-1.58457 4.5022,-14.526039 c 4.192914,-13.528151 4.564756,-14.601805 5.412818,-15.628865 0.500839,-0.606552 0.988291,-1.236023 1.083225,-1.398824 0.136383,-0.233881 -1.22715,-0.296001 -6.49713,-0.296001 -6.236824,0 -6.65949,0.02671 -6.511838,0.411484 0.08685,0.226316 0.218231,1.057532 0.291967,1.847148 0.127796,1.368553 -0.07823,2.11589 -4.40743,15.986985 -3.486106,11.169762 -4.739766,14.881502 -5.394689,15.972122 -0.469257,0.78145 -0.896185,1.50073 -0.948734,1.59841 -0.05255,0.0977 2.841162,0.1776 6.430464,0.1776 6.429902,0 6.526003,-0.007 6.526003,-0.48744 z m 43.816516,0.0294 c -0.13483,-0.25192 -0.24514,-0.67774 -0.24514,-0.94627 0,-0.8509 0.96429,-3.3645 2.30015,-5.99573 l 1.29238,-2.54561 h 5.03878 5.03878 l 0.13641,1.0064 c 0.075,0.55353 0.27026,2.3626 0.43385,4.02016 0.27145,2.75052 0.26147,3.08919 -0.11438,3.87734 -0.22649,0.47496 -0.36992,0.90546 -0.31872,0.95666 0.0512,0.0512 2.87968,0.0646 6.28553,0.0299 l 6.19244,-0.0632 -0.9189,-1.30241 -0.9189,-1.3024 -1.83636,-16.048584 c -1.70586,-14.90813 -1.80885,-16.078976 -1.44926,-16.476314 0.2129,-0.235252 0.38709,-0.499261 0.38709,-0.586686 0,-0.08742 -2.76828,-0.158955 -6.15175,-0.158955 h -6.15174 l 0.2654,0.58249 c 0.24156,0.530181 -0.54857,2.066619 -8.79842,17.108871 -4.9851,9.089508 -9.37819,16.925978 -9.76241,17.414388 l -0.6986,0.888 h 5.11945 c 4.98807,0 5.11316,-0.0118 4.87432,-0.45803 z m 55.35502,-52.289388 c -0.0727,-10.895883 -0.0824,-11.091626 -0.61503,-12.413647 -0.64196,-1.593404 -1.8646,-2.786309 -3.50374,-3.418543 -1.13083,-0.436171 -3.28112,-0.447878 -82.265513,-0.447878 -88.1400846,0 -82.578597,-0.08549 -84.053322,1.292106 -1.440174,1.345324 -1.514528,2.020095 -1.6124,14.63276 l -0.08866,11.425648 h 86.106262 86.106253 z"
     style="fill:#ffffff;fill-rule:evenodd;stroke-width:3.81268" />
  <path
     id="path864"
     d="m 134.7519,95.134793 c 3.44291,-6.596265 4.00748,-7.636832 4.14341,-7.636832 0.0749,0 0.32385,2.31769 0.55316,5.150422 0.2293,2.832731 0.46963,5.336902 0.53407,5.564823 0.10787,0.38158 -0.16682,0.414401 -3.46828,0.414401 h -3.58543 z"
     style="fill:#ffffff;fill-rule:evenodd;stroke-width:3.81268" />
</svg>
